<?xml version="1.0" encoding="UTF-8" standalone="no"?>
<!-- Created with Inkscape (http://www.inkscape.org/) -->

<svg
   width="512"
   height="512"
   viewBox="0 0 512 512"
   version="1.1"
   id="svg5"
   xml:space="preserve"
   inkscape:version="1.2.2 (732a01da63, 2022-12-09)"
   sodipodi:docname="TMX.svg"
   xmlns:inkscape="http://www.inkscape.org/namespaces/inkscape"
   xmlns:sodipodi="http://sodipodi.sourceforge.net/DTD/sodipodi-0.dtd"
   xmlns="http://www.w3.org/2000/svg"
   xmlns:svg="http://www.w3.org/2000/svg"><sodipodi:namedview
     id="namedview7"
     pagecolor="#505050"
     bordercolor="#eeeeee"
     borderopacity="1"
     inkscape:showpageshadow="0"
     inkscape:pageopacity="0"
     inkscape:pagecheckerboard="0"
     inkscape:deskcolor="#505050"
     inkscape:document-units="px"
     showgrid="false"
     inkscape:zoom="0.65186406"
     inkscape:cx="-144.20184"
     inkscape:cy="582.94362"
     inkscape:current-layer="layer1" /><defs
     id="defs2" /><g
     inkscape:label="Layer 1"
     inkscape:groupmode="layer"
     id="layer1"><path
       class="icon-canvas-transparent"
       d="M 510.97485,512 H 4.4240753e-6 V 4.2e-6 H 510.97485 Z"
       id="canvas"
       style="stroke-width:15.984" /><g
       id="iconBg"
       transform="matrix(15.967964,0,0,16,4.4240753e-6,4.2e-6)"><path
         class="icon-vs-out"
         d="M 26,8.009 V 29 H 7 V 3 h 14.053 z"
         id="path326" /><path
         class="icon-vso-bg"
         d="M 21.471,2 H 6 V 30 H 27 V 7.599 Z M 21,3 h 0.053 l 4.939,5 H 21 Z m 5,26 H 7 V 3 h 13 v 6 h 6 z"
         id="path328" /></g><path
       class="icon-vso-lightgrey"
       d="M 271.45539,112 H 143.71168 V 96.000004 h 127.74371 z m 0,32 H 143.71168 v 16 h 127.74371 z m 111.77575,48 H 143.71168 v 16 h 239.51946 z m 0,48 H 143.71168 v 16 h 239.51946 z m 0,48 H 143.71168 v 16 h 239.51946 z m 0,48 H 143.71168 v 16 h 239.51946 z m 0,48 H 143.71168 v 16 h 239.51946 z"
       id="iconFg"
       style="stroke-width:15.984" /><rect
       style="fill:#8fb803;fill-opacity:1;stroke:none;stroke-width:3.99505;paint-order:stroke fill markers;stop-color:#000000"
       id="rect438"
       width="336"
       height="214.50847"
       x="176"
       y="280.74576" /><text
       xml:space="preserve"
       style="font-weight:bold;font-size:163.793px;line-height:1.25;font-family:'Lato Black';-inkscape-font-specification:'Lato Black,  Bold';letter-spacing:0px;word-spacing:0px;fill:#eef5ec;fill-opacity:1;stroke-width:4.09483"
       x="194.28296"
       y="454.14331"
       id="text4987"><tspan
         sodipodi:role="line"
         id="tspan4985"
         x="194.28296"
         y="454.14331"
         style="font-style:normal;font-variant:normal;font-weight:bold;font-stretch:normal;font-family:Bahnschrift;-inkscape-font-specification:'Bahnschrift Bold';fill:#eef5ec;fill-opacity:1;stroke-width:4.09483">TMX</tspan></text><rect
       style="fill:#1e6823;fill-opacity:1;stroke:none;stroke-width:1.54304;paint-order:stroke fill markers;stop-color:#000000"
       id="rect14399"
       width="336"
       height="32"
       x="176"
       y="268" /><rect
       style="fill:#1e6823;fill-opacity:1;stroke:none;stroke-width:1.54304;paint-order:stroke fill markers;stop-color:#000000"
       id="rect20197"
       width="336"
       height="32"
       x="176"
       y="480" /></g><style
     id="style323">.icon-canvas-transparent{opacity:0;fill:#f6f6f6}.icon-vs-out{fill:#f6f6f6}.icon-vso-bg{fill:#656565}.icon-vso-lightgrey{fill:#bfbfbf}.icon-white{fill:#fff}.st0{fill:url(#path1948_1_)}.st1{fill:url(#path1950_1_)}</style></svg>
